<?xml version="1.0" encoding="utf-8"?>
<!-- Generator: Adobe Illustrator 26.2.1, SVG Export Plug-In . SVG Version: 6.00 Build 0)  -->
<svg version="1.1" id="a" xmlns="http://www.w3.org/2000/svg" xmlns:xlink="http://www.w3.org/1999/xlink" x="0px" y="0px"
	 viewBox="0 0 600 600" style="enable-background:new 0 0 600 600;" xml:space="preserve">
<style type="text/css">
	
		.st0{fill:url(#SVGID_1_);stroke:url(#SVGID_00000097472841775718026880000011314279312628159373_);stroke-width:21;stroke-miterlimit:10;}
	.st1{fill:#006EB8;}
	.st2{fill:#006EB8;stroke:#006EB8;stroke-miterlimit:10;}
</style>
<linearGradient id="SVGID_1_" gradientUnits="userSpaceOnUse" x1="-800.4861" y1="771.0635" x2="-799.4247" y2="770.0021" gradientTransform="matrix(0.8433 0.5374 0.5374 -0.8433 86.5654 -759.7366)">
	<stop  offset="3.000000e-02" style="stop-color:#BFEEFF"/>
	<stop  offset="1" style="stop-color:#FFFFFF"/>
</linearGradient>
<linearGradient id="SVGID_00000128477949615863046020000016613270273935011218_" gradientUnits="userSpaceOnUse" x1="783.9372" y1="-1023.5246" x2="1359.7812" y2="-861.9876" gradientTransform="matrix(0.6668 0.7452 0.7452 -0.6668 287.8748 -1127.4188)">
	<stop  offset="0" style="stop-color:#91D5FD"/>
	<stop  offset="0.13" style="stop-color:#8AD0FA"/>
	<stop  offset="0.32" style="stop-color:#78C1F0"/>
	<stop  offset="0.53" style="stop-color:#59AAE1"/>
	<stop  offset="0.77" style="stop-color:#2E8ACB"/>
	<stop  offset="1" style="stop-color:#0067B4"/>
</linearGradient>
<circle style="fill:url(#SVGID_1_);stroke:url(#SVGID_00000128477949615863046020000016613270273935011218_);stroke-width:21;stroke-miterlimit:10;" cx="300" cy="300" r="288.5"/>
<path class="st1" d="M166.6,194.7c-0.7-2.1,24-15.8,54.8-24.5c29.7-8.4,80.2-16.5,148.8,2.2c-30.6-1.6-61.2,1.9-90.8,10.3
	c-5.4-0.3-12.9-0.7-22.1-0.6C203.9,182.4,167.4,197.1,166.6,194.7L166.6,194.7z"/>
<path class="st1" d="M302.9,185.6c10-2.4,20.1-4.5,30.3-5.8c19.3-2.7,38.7-3.3,58.2-1.9c9.2,1.9,18,5.8,25.7,11.4
	c23.8,17.5,27.4,45.5,28.3,53.1c3.5,27.1-7.2,47.9-11.5,55.4c0.6-6.7,0.5-13.4-0.2-20c-0.7-6.7-4.7-41.5-34.2-64.4
	c-11.1-8.5-24.2-14.2-38-16.8C341.9,192.9,322.4,189.3,302.9,185.6z"/>
<path class="st1" d="M405.6,336.8c9.9,4.9,38.8,21,52,54.1c3.2,8.1,10.1,26.2,4.8,48c-1.8,7.4-5.4,20.9-18.3,31.4
	c-8,6.6-17.6,10.6-27.9,11.6c-7.6,0.6-16.7-0.5-41.6-13.8c-15.3-8.1-29.9-17.2-43.9-27.3c8.8,2.5,17.8,3.8,27,3.8
	c9.8,0,21.3,0,33.2-6.3c1.7-1,19.5-10.7,25.5-30.4c3.2-10.4,0.5-22.9-4.8-47.6C409.3,350.6,407.2,342.6,405.6,336.8L405.6,336.8z"/>
<path class="st1" d="M320.5,444.7c9.7,7.6,19.7,14.6,30.4,20.9c12.8,7.4,26.4,13.7,40.4,18.8c-7.4,0.4-17.8,0.7-30.3,0.6
	c-22.7-0.2-62.2-0.6-106.3-12.9c-36.9-10.4-71.8-27.2-102.7-49.7c27.3,14.1,56.9,23,87.5,26.4C266.5,451.9,293.8,450.5,320.5,444.7
	L320.5,444.7z"/>
<path class="st1" d="M299.9,91.3c1.7,4.9,4.4,11.6,5.7,18.8c1,4.8,5.5,22.7,6.8,27.3c2.5,8,3.7,10.8,5,16.2c1.6,0.3,3.2,0.5,4.8,0.6
	c11,1,21.9,3,32.5,6.1c-5.2-3.5-10-7.6-14.2-12.2c-6.3-6.5-5.3-5-10.5-11.4c-6.2-7.4-11.8-15.3-16.8-23.5
	C308.4,105.9,305.1,100.6,299.9,91.3L299.9,91.3z"/>
<path class="st1" d="M296.7,97.8c-8.9,11.4-18.4,22.2-28.4,32.5c-9,9.2-18.5,18-28.4,26.3C265.6,145.1,286,124,296.7,97.8
	L296.7,97.8L296.7,97.8z"/>
<ellipse class="st2" cx="190.1" cy="282.8" rx="5.6" ry="9.3"/>
<ellipse class="st2" cx="308.3" cy="282.8" rx="5.6" ry="9.3"/>
<path class="st1" d="M152.8,202.1c-5.5,8.4-9.8,17.5-12.6,27.1c-4.4,14.4-5.1,29.8-2.1,44.6c0.3,6.7,0.2,13.4-0.4,20.1
	c-1.6,17.4-6.1,34.5-13.3,50.4c-3.6,8.4-5.2,17.4-4.7,26.5c1.6,22.1,16.5,37.3,23.4,43.5c-2.1-4.4-4.4-8.8-6.5-13.3
	c-4.2-7-7.1-14.8-8.2-22.9c-1.3-11.3,0.7-22.5,5.8-32.6c7.6-15.2,12.3-31.6,13.7-48.5c0.8-11.3,0.1-22.6-2.2-33.8
	c-1.1-5.8-1.7-11.9-1.7-17.8C143.9,230.6,146.9,215.8,152.8,202.1L152.8,202.1z"/>
<path class="st1" d="M403.6,228.1c6.1,8,11.3,16.5,15.7,25.4c0,0,8.8,20.1,8.6,34.2c0,1.5,0.7,11.7,1,18.5c0.3,8.2,0.3,8.8,0.5,11.1
	c0.3,2.3,0.7,4.7,1.4,6.9c1.6,6.1,4,11.8,7.3,17.1c5,8.7,7.5,15.6,15.1,22c-4.4-3.7-5.3-4.1-11.4-8.8c-3.3-3-8.5-6.8-20.8-17.4
	c-7.5-6.6-11.1-10.3-13.9-15.7c-3.3-6.7-4.9-14.1-4.5-21.5c-0.1-3.4,0.3-6.8,1.1-10.1c1.5-6.1,3.6-8.3,4.9-14.6
	c0.5-2.8,0.8-5.5,0.8-8.3C410,252.7,404.4,231.3,403.6,228.1L403.6,228.1z"/>
</svg>
